<svg width="36" height="36" viewBox="0 0 36 36" fill="none" xmlns="http://www.w3.org/2000/svg">
<path d="M13.5 3.375C14.1213 3.375 14.625 3.87868 14.625 4.5V9.375H21.375V4.5C21.375 3.87868 21.8787 3.375 22.5 3.375C23.1213 3.375 23.625 3.87868 23.625 4.5V9.375H28.5C29.1213 9.375 29.625 9.87868 29.625 10.5V15.75C29.625 16.3713 29.1213 16.875 28.5 16.875C27.8787 16.875 27.375 16.3713 27.375 15.75V11.625H8.625V24.375H27.375V20.25C27.375 19.6287 27.8787 19.125 28.5 19.125C29.1213 19.125 29.625 19.6287 29.625 20.25V25.5C29.625 26.1213 29.1213 26.625 28.5 26.625H23.625V31.5C23.625 32.1213 23.1213 32.625 22.5 32.625C21.8787 32.625 21.375 32.1213 21.375 31.5V26.625H14.625V31.5C14.625 32.1213 14.1213 32.625 13.5 32.625C12.8787 32.625 12.375 32.1213 12.375 31.5V26.625H7.5C6.87868 26.625 6.375 26.1213 6.375 25.5V10.5C6.375 9.87868 6.87868 9.375 7.5 9.375H12.375V4.5C12.375 3.87868 12.8787 3.375 13.5 3.375Z" fill="black"/>
</svg>
