<svg width="96" height="96" viewBox="0 0 96 96" fill="none" xmlns="http://www.w3.org/2000/svg">
<path d="M71.6863 70.8386H21.1143C17.4217 70.8386 14.4004 67.6409 14.4004 63.7328V31.4729C14.4004 27.5647 17.4217 24.3672 21.1143 24.3672H71.6863C75.3789 24.3672 78.4002 27.5647 78.4002 31.4729V63.7328C78.4002 67.6409 75.3789 70.8386 71.6863 70.8386Z" fill="#121661"/>
<path d="M32.7319 24.367C32.7319 24.367 32.4465 16 46.4113 16C60.3761 16 60.0908 24.367 60.0908 24.367" stroke="#121661" stroke-width="5.99998" stroke-miterlimit="10" stroke-linecap="round" stroke-linejoin="round"/>
<path d="M71.6863 48.3845H21.1143C17.4217 48.3845 14.4004 45.1869 14.4004 41.2788V31.4729C14.4004 27.5647 17.4217 24.3672 21.1143 24.3672H71.6863C75.3789 24.3672 78.4002 27.5647 78.4002 31.4729V41.2788C78.4002 45.1869 75.3789 48.3845 71.6863 48.3845Z" fill="#1040C1"/>
<path d="M75.1995 52.8H36.7996C35.0323 52.8 33.5996 54.2327 33.5996 56V75.1999C33.5996 76.9672 35.0323 78.3999 36.7996 78.3999H75.1995C76.9668 78.3999 78.3995 76.9672 78.3995 75.1999V56C78.3995 54.2327 76.9668 52.8 75.1995 52.8Z" fill="#69D5BA"/>
<path d="M78.3998 55.9996H39.9999C38.2326 55.9996 36.7999 57.4323 36.7999 59.1996V78.3995C36.7999 80.1668 38.2326 81.5995 39.9999 81.5995H78.3998C80.1671 81.5995 81.5998 80.1668 81.5998 78.3995V59.1996C81.5998 57.4323 80.1671 55.9996 78.3998 55.9996Z" fill="#38AF88"/>
<path d="M59.2002 78.3995C63.6184 78.3995 67.2001 74.1015 67.2001 68.7996C67.2001 63.4977 63.6184 59.1996 59.2002 59.1996C54.782 59.1996 51.2002 63.4977 51.2002 68.7996C51.2002 74.1015 54.782 78.3995 59.2002 78.3995Z" fill="#E1FFFA"/>
</svg>
